<?xml version="1.0" standalone="no"?>
<!DOCTYPE svg PUBLIC "-//W3C//DTD SVG 20010904//EN"
        "http://www.w3.org/TR/2001/REC-SVG-20010904/DTD/svg10.dtd">
<svg version="1.0" xmlns="http://www.w3.org/2000/svg"
     width="442.000000pt" height="400.000000pt" viewBox="0 0 442.000000 400.000000"
     preserveAspectRatio="xMidYMid meet">
    <metadata>
        Created by potrace 1.16, written by Peter Selinger 2001-2019
    </metadata>
    <g transform="translate(0.000000,400.000000) scale(0.100000,-0.100000)"
       fill="#000000" stroke="none">
        <path d="M0 2000 l0 -2000 2210 0 2210 0 0 2000 0 2000 -2210 0 -2210 0 0
-2000z m1257 1938 c24 -22 30 -52 13 -63 -5 -3 -10 -15 -10 -25 0 -10 -14 -29
-30 -42 -22 -17 -32 -36 -37 -63 -7 -51 -30 -80 -50 -63 -11 9 -19 9 -33 0
-30 -18 -34 5 -5 24 21 14 28 14 42 3 15 -13 16 -11 11 14 -3 15 -1 27 3 27 5
0 9 23 9 50 0 28 -4 50 -10 50 -5 0 -10 -4 -10 -9 0 -18 -47 -61 -66 -61 -11
1 -30 7 -44 15 -33 19 -100 19 -128 -1 -24 -17 -30 -65 -9 -81 12 -10 62 -26
84 -28 6 0 15 -4 19 -8 4 -4 12 -7 18 -7 21 1 -28 30 -50 30 -25 0 -38 22 -21
39 14 14 107 15 107 1 0 -5 7 -10 15 -10 9 0 12 -6 9 -15 -4 -8 -12 -15 -19
-15 -7 0 -15 -6 -18 -14 -4 -9 14 -28 46 -53 50 -37 52 -41 55 -90 4 -73 -13
-127 -53 -168 -51 -50 -125 -67 -205 -45 -74 20 -135 39 -126 39 5 1 3 7 -3
15 -16 19 -3 46 47 101 11 13 11 15 -2 15 -8 0 -21 -7 -30 -15 -9 -9 -17 -11
-21 -5 -3 5 -13 10 -20 10 -11 0 -13 -8 -9 -30 6 -26 4 -30 -15 -30 -12 0 -21
6 -21 15 0 16 -30 35 -54 35 -9 0 -19 -15 -26 -40 -9 -33 -15 -40 -35 -40 -23
0 -25 -4 -25 -49 0 -55 -5 -61 -65 -77 l-40 -11 47 -8 47 -7 7 -54 c3 -30 10
-54 15 -54 11 0 49 -32 49 -41 0 -4 -12 -25 -26 -47 -20 -30 -35 -42 -63 -47
l-36 -8 30 -13 c17 -7 51 -13 76 -14 48 0 110 -25 147 -60 28 -26 28 -26 -5
-55 -34 -30 -40 -30 -94 -5 -56 25 -108 25 -162 0 -53 -26 -77 -59 -93 -126
-17 -74 -2 -138 42 -181 19 -18 39 -33 44 -33 6 0 10 -4 10 -10 0 -6 29 -10
68 -10 50 0 75 5 97 20 40 26 54 25 87 -7 l27 -26 -32 -29 c-53 -48 -94 -61
-187 -62 -76 -1 -91 2 -137 28 -29 16 -53 33 -53 38 0 4 -6 8 -12 8 -18 0 -54
56 -73 114 -18 52 -16 126 5 208 12 49 90 148 117 148 7 0 13 5 13 10 0 6 6
10 14 10 7 0 27 7 42 15 26 13 27 15 7 15 -12 0 -25 5 -28 10 -3 6 -18 10 -33
9 l-27 -1 28 -12 28 -12 -28 -13 c-15 -7 -36 -18 -47 -23 -13 -7 -21 -6 -27 3
-4 8 -12 10 -16 5 -4 -5 -2 -11 5 -13 21 -8 14 -35 -7 -28 -11 3 -22 1 -26 -5
-4 -7 -18 -9 -31 -6 -24 6 -33 -7 -14 -19 13 -8 13 -45 0 -45 -5 0 -10 -9 -10
-20 0 -11 -5 -20 -10 -20 -6 0 -21 -25 -35 -55 -26 -61 -41 -67 -80 -33 l-25
22 0 618 0 618 577 0 577 0 23 -22z m1858 -143 l0 -60 46 3 c53 4 75 -14 65
-52 -5 -22 -12 -25 -59 -28 l-52 -3 -3 -80 c-2 -44 0 -99 3 -122 6 -43 6 -43
49 -43 35 0 45 -4 56 -25 12 -22 11 -27 -6 -39 -39 -29 -127 -31 -165 -3 -33
24 -39 55 -39 187 l0 131 -27 -3 c-25 -3 -28 1 -31 27 -3 27 1 32 31 43 35 13
47 33 47 83 0 34 19 50 55 47 30 -3 30 -4 30 -63z m-1614 -76 c42 -29 70 -99
63 -154 l-7 -45 -127 0 c-141 0 -149 -4 -124 -56 16 -32 54 -54 95 -54 36 0
101 28 94 40 -3 6 -2 10 3 10 10 0 72 -59 72 -69 0 -3 -22 -19 -48 -35 -40
-25 -58 -29 -122 -30 -62 -1 -80 3 -106 21 -17 13 -43 27 -58 33 -14 5 -26 17
-26 27 0 14 -2 15 -9 4 -6 -8 -10 15 -13 63 -2 51 -8 80 -17 85 -7 5 -10 14
-7 20 4 6 11 9 16 6 5 -3 8 3 8 12 -2 24 48 98 79 118 56 37 184 39 234 4z
m359 23 c23 -1 48 -12 70 -31 l35 -29 -22 -21 c-23 -22 -67 -28 -78 -11 -3 6
-26 10 -50 10 -38 0 -47 -4 -69 -33 -22 -28 -26 -45 -26 -99 0 -57 3 -67 28
-91 35 -33 81 -35 128 -6 l34 20 24 -26 c31 -33 26 -46 -27 -75 -32 -19 -57
-24 -107 -24 -85 0 -140 32 -170 100 -25 53 -37 149 -21 159 6 3 11 15 11 27
0 24 34 75 69 103 26 21 68 32 111 29 14 0 41 -2 60 -2z m244 -139 c-6 -170 0
-187 67 -191 74 -5 81 9 83 180 l1 143 53 3 52 3 -2 -203 -3 -203 -35 -3 c-24
-3 -38 2 -47 14 -13 17 -15 17 -46 -1 -43 -26 -132 -26 -170 -1 -50 34 -57 61
-57 229 0 84 3 157 7 160 3 4 28 7 54 7 l48 0 -5 -137z m446 107 c0 -16 2 -30
4 -30 3 0 18 14 34 30 25 25 39 30 77 30 53 0 62 -13 45 -65 -11 -33 -14 -35
-54 -35 -46 0 -82 -25 -91 -63 -3 -12 -6 -71 -8 -132 l-2 -110 -52 -3 -53 -3
0 199 c0 109 3 202 7 205 3 4 26 7 50 7 41 0 43 -1 43 -30z m340 10 c3 -4 3
-93 0 -196 l-5 -189 -52 -3 -53 -3 0 199 c0 109 3 202 7 206 9 9 96 -3 103
-14z m474 -5 c9 -13 16 -29 16 -35 0 -10 32 -86 51 -122 5 -10 9 -24 9 -32 0
-7 6 -18 13 -24 10 -9 16 -1 26 36 8 26 17 52 21 57 4 6 12 26 20 45 36 98 44
105 106 98 35 -4 34 -15 -7 -105 -16 -35 -29 -66 -29 -68 0 -2 -13 -33 -28
-67 -16 -35 -51 -114 -77 -176 -27 -63 -53 -115 -59 -117 -44 -13 -77 -13 -82
-1 -3 7 9 44 27 82 36 79 36 75 -31 219 -20 44 -47 107 -60 140 -13 33 -27 65
-32 71 -13 17 2 24 53 24 39 0 49 -4 63 -25z m-2442 -742 c11 -12 13 -25 8
-38 -5 -11 -9 -53 -9 -92 -1 -59 2 -73 14 -73 8 0 15 4 15 10 0 17 78 32 122
23 30 -6 49 -18 71 -46 l31 -37 0 -160 c0 -88 -2 -161 -5 -164 -2 -2 -26 -6
-54 -8 l-50 -3 -3 154 c-2 100 -7 160 -14 169 -16 18 -83 10 -109 -14 -17 -15
-19 -32 -19 -159 l0 -142 -47 -6 c-27 -3 -51 -2 -55 1 -5 5 -13 511 -9 590 1
20 95 16 113 -5z m584 -183 c66 -32 74 -60 74 -244 l0 -156 -31 0 c-19 0 -37
7 -45 18 -12 16 -15 16 -50 -3 -39 -21 -106 -26 -157 -12 -21 6 -34 20 -48 51
-17 40 -18 47 -4 79 16 39 58 77 86 77 10 0 21 5 24 10 3 6 33 10 66 10 58 0
59 1 59 28 0 68 -61 93 -128 52 -41 -25 -54 -25 -76 -1 -25 28 -17 51 27 74
78 40 143 46 203 17z m407 4 c18 -9 36 -23 40 -30 9 -16 37 -19 37 -4 0 18 63
42 112 42 55 0 90 -19 118 -65 18 -28 20 -51 20 -189 l0 -158 -40 0 c-22 0
-43 -1 -47 -2 -5 -2 -10 66 -13 150 -4 137 -7 155 -24 168 -26 18 -56 18 -84
-2 -21 -14 -22 -22 -22 -164 l0 -148 -47 -4 c-27 -3 -51 -3 -55 -1 -5 2 -8 71
-8 153 0 122 -3 151 -16 164 -23 23 -61 19 -89 -9 -24 -23 -25 -29 -25 -163
l0 -140 -42 -4 c-24 -3 -48 -3 -55 -1 -8 3 -12 59 -13 198 0 183 1 195 19 205
30 15 69 12 80 -7 9 -16 13 -16 33 -4 21 13 62 28 81 30 4 1 22 -6 40 -15z
m709 -5 c9 -5 30 -26 45 -46 25 -32 28 -46 31 -122 3 -69 0 -95 -16 -132 -37
-85 -128 -128 -204 -96 -20 8 -39 13 -42 9 -3 -3 -6 -36 -6 -73 l0 -67 -40 -7
c-21 -4 -44 -4 -50 0 -6 4 -10 99 -10 271 l0 264 41 0 c28 0 46 -6 54 -17 12
-16 15 -16 32 -2 41 36 116 44 165 18z m621 -3 c79 -28 117 -90 117 -189 0
-97 -34 -158 -110 -198 -36 -19 -148 -16 -187 4 -43 23 -84 76 -100 129 -23
76 9 180 70 229 51 39 139 50 210 25z m473 -2 c58 -28 68 -59 72 -236 l4 -158
-51 0 -51 0 0 135 c0 81 -5 144 -12 160 -20 44 -82 46 -126 5 -21 -20 -22 -29
-22 -160 l0 -140 -50 0 -50 0 0 200 0 200 41 0 c28 0 46 -6 54 -17 12 -16 15
-16 32 -2 10 9 25 19 33 22 30 11 93 7 126 -9z m386 -5 c15 -6 29 -18 32 -25
14 -35 -27 -64 -63 -45 -11 6 -38 11 -60 11 -30 0 -43 -5 -51 -21 -16 -29 1
-45 68 -66 73 -23 122 -69 122 -114 0 -90 -93 -150 -203 -134 -25 4 -59 16
-76 26 -31 18 -31 20 -15 44 19 28 33 30 88 11 44 -15 84 -8 100 17 17 27 -4
48 -74 74 -85 30 -110 56 -112 114 -1 67 27 102 97 120 38 10 113 4 147 -12z
m-1218 -16 c0 -13 -1 -102 -2 -198 l-2 -175 -50 0 -50 0 0 201 0 200 53 -3
c47 -3 52 -5 51 -25z m-244 -777 c31 -7 76 -22 101 -33 53 -24 148 -104 169
-144 l15 -29 25 46 c33 63 81 94 146 94 43 0 53 -4 63 -23 9 -17 9 -30 1 -51
-9 -26 -8 -32 15 -56 27 -28 33 -71 13 -88 -7 -6 -30 -13 -51 -17 -21 -4 -42
-15 -47 -25 -18 -34 -41 -50 -71 -50 l-30 0 6 -72 c8 -95 10 -98 42 -98 80 -1
122 -116 71 -195 -32 -48 -75 -69 -127 -62 -38 5 -43 3 -56 -22 -7 -15 -41
-53 -73 -83 l-60 -55 67 -13 c77 -15 93 -22 138 -63 31 -28 33 -34 33 -94 0
-63 -1 -65 -46 -108 -49 -48 -84 -57 -120 -30 -25 19 -187 21 -201 3 -5 -7
-15 -37 -22 -66 l-13 -53 45 -57 c24 -31 54 -77 67 -102 12 -24 36 -57 51 -71
16 -15 29 -36 29 -48 0 -19 10 -49 33 -98 7 -17 6 -27 -4 -39 -12 -15 -11 -19
11 -33 14 -8 40 -31 59 -51 29 -30 32 -36 16 -38 -10 -3 -32 11 -52 32 -20 20
-42 36 -49 36 -13 0 -19 23 -16 63 3 29 -38 145 -53 150 -7 3 -25 32 -41 64
-26 55 -63 108 -110 161 -18 21 -22 21 -34 8 -7 -9 -25 -16 -41 -16 -26 0 -28
2 -20 23 5 12 14 49 21 82 13 66 23 91 37 88 4 -1 20 -4 34 -8 23 -6 27 -3 33
26 3 17 6 71 6 119 l0 87 -122 1 c-99 0 -134 4 -176 20 -68 26 -130 63 -171
101 -39 36 -44 37 -79 13 -15 -10 -39 -24 -54 -31 -43 -22 -159 -122 -152
-132 3 -5 23 -9 44 -9 21 0 42 -4 45 -10 3 -5 2 -10 -3 -10 -11 0 -46 -70 -62
-124 -12 -38 -9 -114 5 -148 5 -12 3 -18 -6 -18 -16 0 -84 -111 -161 -263 -10
-21 -25 -40 -33 -43 -8 -3 -19 -21 -25 -39 -6 -18 -24 -44 -41 -59 -27 -24
-28 -28 -14 -42 8 -9 15 -22 15 -29 0 -20 -74 -95 -94 -95 -22 0 -9 25 34 63
29 26 30 30 16 46 -24 26 -20 40 24 82 30 29 40 47 40 70 0 22 5 32 20 36 12
3 45 52 90 134 l71 129 -35 41 c-102 120 -21 297 202 441 65 43 71 52 49 82
-13 17 -16 17 -44 3 -74 -39 -183 41 -183 133 0 68 49 120 112 120 33 0 38 3
38 24 0 12 3 51 6 85 l7 61 -27 0 c-17 0 -39 12 -59 31 -17 17 -45 36 -61 42
-69 22 -85 66 -41 107 21 20 24 29 19 62 -17 104 111 103 199 -2 15 -17 27
-41 27 -53 0 -18 9 -12 53 34 86 93 148 130 257 155 73 16 192 16 260 0z
m-391 -1017 c61 -20 83 -33 122 -72 69 -71 87 -174 45 -262 -22 -48 -75 -105
-96 -105 -5 0 -10 -4 -10 -8 0 -27 -136 -42 -187 -20 -91 40 -137 94 -163 190
-27 101 46 226 156 267 59 23 86 25 133 10z m257 -223 c-4 -17 -11 -56 -15
-86 -5 -31 -11 -66 -15 -78 -5 -16 -3 -24 9 -28 12 -5 14 -14 10 -38 -4 -17
-12 -36 -19 -42 -19 -19 -92 -24 -116 -7 -21 15 -20 15 23 53 61 54 92 119 92
194 0 34 4 64 10 68 17 12 27 -4 21 -36z m-24 -478 c28 -30 48 -62 48 -74 0
-13 5 -26 10 -29 6 -3 10 -13 10 -21 0 -9 14 -30 32 -47 26 -27 28 -33 14 -35
-21 -4 -66 24 -66 41 0 18 -24 67 -32 67 -5 0 -8 11 -8 24 0 14 -14 40 -34 60
l-33 36 -121 0 -120 0 -46 -41 c-28 -25 -46 -50 -46 -63 0 -12 -18 -39 -40
-61 -22 -21 -40 -45 -40 -52 0 -7 -4 -13 -10 -13 -21 0 -9 48 20 75 17 16 30
39 30 51 0 15 21 41 63 78 l62 56 129 0 130 0 48 -52z"/>
        <path d="M824 3607 c-4 -10 4 -25 20 -40 31 -29 33 -48 6 -67 -24 -17 -26 -30
-5 -30 8 0 15 -4 15 -9 0 -19 70 -36 133 -33 24 2 27 5 22 22 -4 13 -1 22 9
26 24 9 20 51 -6 68 -13 7 -54 24 -93 36 -38 12 -76 26 -82 32 -9 7 -15 6 -19
-5z"/>
        <path d="M2461 2694 c-30 -25 -31 -28 -31 -115 l0 -90 37 -16 c46 -19 77 -10
107 30 17 23 21 42 20 103 -1 64 -4 77 -24 94 -31 27 -72 25 -109 -6z"/>
        <path d="M3109 2707 c-29 -22 -39 -55 -39 -124 1 -88 28 -123 98 -123 83 0
123 169 57 236 -27 27 -88 32 -116 11z"/>
        <path d="M2355 1948 c-75 -26 -154 -74 -193 -117 -39 -43 -87 -124 -99 -166
-44 -153 -45 -235 -1 -377 11 -37 38 -51 53 -28 8 13 88 13 102 -1 21 -21 143
-15 216 11 l67 24 68 -24 c74 -27 190 -32 217 -10 26 21 82 16 110 -10 16 -15
29 -20 35 -14 16 16 40 156 40 234 0 168 -51 302 -151 394 -33 31 -68 56 -78
56 -10 0 -21 3 -25 7 -3 4 -23 13 -44 20 -44 15 -272 16 -317 1z m220 -142
c52 -40 75 -101 75 -200 0 -64 -4 -87 -16 -97 -23 -19 -35 5 -32 63 1 26 -2
51 -6 55 -3 4 -41 7 -84 8 l-77 0 -1 -53 c-2 -60 -7 -70 -29 -52 -11 9 -15 34
-15 105 0 106 15 146 64 176 42 26 83 24 121 -5z m-299 -331 c44 -26 70 -58
59 -75 -3 -5 -12 -7 -19 -4 -7 3 -16 -2 -19 -11 -9 -22 28 -55 61 -55 23 0 32
7 45 36 15 30 20 34 32 24 24 -20 17 -47 -20 -83 -103 -100 -255 -28 -255 119
0 76 41 93 116 49z m566 8 c23 -21 24 -97 2 -141 -50 -101 -211 -105 -264 -7
-10 19 -11 31 -4 43 15 23 34 26 34 5 1 -47 46 -67 88 -37 27 19 30 56 5 52
-12 -2 -18 3 -18 17 0 23 86 85 118 85 11 0 29 -7 39 -17z"/>
        <path d="M2706 1002 c-2 -4 -6 -59 -7 -122 l-4 -115 40 -7 c22 -4 61 -7 87 -7
26 -1 50 -5 53 -11 13 -21 53 -8 96 30 39 35 43 41 31 60 -9 16 -10 24 0 39
10 17 9 23 -7 41 -34 38 -79 58 -170 75 -49 9 -95 18 -102 20 -7 2 -14 1 -17
-3z"/>
        <path d="M2152 903 c-23 -3 -48 -18 -76 -47 -46 -45 -60 -93 -49 -161 6 -40
53 -99 95 -121 70 -36 178 -5 225 65 44 66 25 177 -40 233 -21 19 -81 39 -107
36 -8 -1 -30 -3 -48 -5z m63 -114 c12 -23 21 -29 36 -24 29 10 36 -21 9 -43
-19 -15 -21 -22 -11 -40 15 -28 14 -32 -9 -32 -11 0 -20 5 -20 10 0 6 -9 10
-19 10 -11 0 -23 -4 -26 -10 -3 -5 -13 -10 -22 -10 -11 0 -14 7 -10 27 3 18
-1 36 -14 52 -22 27 -19 33 14 37 12 1 25 3 30 3 4 1 7 9 7 19 0 17 8 32 16
32 2 0 11 -14 19 -31z"/>
    </g>
</svg>
